<?xml version="1.0" encoding="UTF-8" standalone="no"?>
<!-- Created with Inkscape (http://www.inkscape.org/) -->

<svg
   xmlns:dc="http://purl.org/dc/elements/1.1/"
   xmlns:cc="http://creativecommons.org/ns#"
   xmlns:rdf="http://www.w3.org/1999/02/22-rdf-syntax-ns#"
   xmlns:svg="http://www.w3.org/2000/svg"
   xmlns="http://www.w3.org/2000/svg"
   xmlns:sodipodi="http://sodipodi.sourceforge.net/DTD/sodipodi-0.dtd"
   xmlns:inkscape="http://www.inkscape.org/namespaces/inkscape"
   version="1.1"
   id="svg2"
   width="200"
   height="200"
   viewBox="0 0 200 200"
   sodipodi:docname="favicon.svg"
   inkscape:version="0.92.3 (unknown)">
  <metadata
     id="metadata8">
    <rdf:RDF>
      <cc:Work
         rdf:about="">
        <dc:format>image/svg+xml</dc:format>
        <dc:type
           rdf:resource="http://purl.org/dc/dcmitype/StillImage" />
        <dc:title />
      </cc:Work>
    </rdf:RDF>
  </metadata>
  <defs
     id="defs6" />
  <sodipodi:namedview
     pagecolor="#ffffff"
     bordercolor="#666666"
     borderopacity="1"
     objecttolerance="10"
     gridtolerance="10"
     guidetolerance="10"
     inkscape:pageopacity="0"
     inkscape:pageshadow="2"
     inkscape:window-width="1317"
     inkscape:window-height="744"
     id="namedview4"
     showgrid="false"
     inkscape:zoom="2.5717244"
     inkscape:cx="80.377593"
     inkscape:cy="99.254179"
     inkscape:window-x="49"
     inkscape:window-y="24"
     inkscape:window-maximized="1"
     inkscape:current-layer="svg2"
     inkscape:snap-global="true"
     fit-margin-top="0"
     fit-margin-left="0"
     fit-margin-right="0"
     fit-margin-bottom="0" />
  <path
     style="color:#000000;font-style:normal;font-variant:normal;font-weight:normal;font-stretch:normal;font-size:medium;line-height:normal;font-family:sans-serif;font-variant-ligatures:normal;font-variant-position:normal;font-variant-caps:normal;font-variant-numeric:normal;font-variant-alternates:normal;font-feature-settings:normal;text-indent:0;text-align:start;text-decoration:none;text-decoration-line:none;text-decoration-style:solid;text-decoration-color:#000000;letter-spacing:normal;word-spacing:normal;text-transform:none;writing-mode:lr-tb;direction:ltr;text-orientation:mixed;dominant-baseline:auto;baseline-shift:baseline;text-anchor:start;white-space:normal;shape-padding:0;clip-rule:nonzero;display:inline;overflow:visible;visibility:visible;opacity:1;isolation:auto;mix-blend-mode:normal;color-interpolation:sRGB;color-interpolation-filters:linearRGB;solid-color:#000000;solid-opacity:1;vector-effect:none;fill:#f23a29;fill-opacity:1;fill-rule:nonzero;stroke:none;stroke-width:7;stroke-linecap:butt;stroke-linejoin:miter;stroke-miterlimit:4;stroke-dasharray:none;stroke-dashoffset:0;stroke-opacity:1;color-rendering:auto;image-rendering:auto;shape-rendering:auto;text-rendering:auto;enable-background:accumulate"
     d="m 106.59377,1.1157211 -2.38189,2.2780823 C 84.024748,22.710112 58.554583,31.158378 30.819173,31.945769 l -3.189311,0.09036 -0.153794,3.185471 c -2.009734,41.449382 3.257246,78.48783 15.98502,107.14293 12.727785,28.65509 33.177091,49.00561 60.964182,56.00622 l 0.023,0.006 2.14543,0.50753 2.14544,-0.50753 0.023,-0.006 c 27.78709,-7.00061 48.2364,-27.35113 60.96418,-56.00622 5.02868,-11.32147 8.87987,-23.96319 11.5865,-37.66046 -2.30115,0.0698 -4.93961,-0.0301 -7.08608,0.11727 -2.59108,12.70054 -6.18847,24.36755 -10.7983,34.74604 -12.11642,27.27867 -30.83272,45.692 -56.34842,52.12099 h -0.002 l -0.48445,0.11535 -0.48638,-0.11535 C 80.591846,185.25938 61.875385,166.84605 49.758979,139.56738 37.951177,112.98351 32.713115,78.01792 34.275708,38.620454 61.049057,37.280181 86.235896,28.77861 106.59377,10.426061 c 20.35788,18.352549 45.5447,26.85412 72.31807,28.194393 0.46014,11.601902 0.32704,22.816007 -0.38641,33.548367 h 0.81127 c 3.66398,0.455696 5.26257,1.706201 5.89609,3.327731 0.9854,-12.826747 1.15668,-26.291667 0.47869,-40.274958 l -0.1538,-3.18547 -3.18932,-0.09036 C 154.6331,31.158384 129.1628,22.710112 108.97567,3.3938034 Z"
     id="path1055"
     inkscape:connector-curvature="0"
     sodipodi:nodetypes="cccccscccccsccsccccsccccccccccc" />
  <path
     style="color:#000000;font-style:normal;font-variant:normal;font-weight:normal;font-stretch:normal;font-size:medium;line-height:normal;font-family:sans-serif;font-variant-ligatures:normal;font-variant-position:normal;font-variant-caps:normal;font-variant-numeric:normal;font-variant-alternates:normal;font-feature-settings:normal;text-indent:0;text-align:start;text-decoration:none;text-decoration-line:none;text-decoration-style:solid;text-decoration-color:#000000;letter-spacing:normal;word-spacing:normal;text-transform:none;writing-mode:lr-tb;direction:ltr;text-orientation:mixed;dominant-baseline:auto;baseline-shift:baseline;text-anchor:start;white-space:normal;shape-padding:0;clip-rule:nonzero;display:inline;overflow:visible;visibility:visible;opacity:1;isolation:auto;mix-blend-mode:normal;color-interpolation:sRGB;color-interpolation-filters:linearRGB;solid-color:#000000;solid-opacity:1;vector-effect:none;fill:#ffffff;fill-opacity:1;fill-rule:nonzero;stroke:none;stroke-width:7;stroke-linecap:butt;stroke-linejoin:miter;stroke-miterlimit:4;stroke-dasharray:none;stroke-dashoffset:0;stroke-opacity:1;color-rendering:auto;image-rendering:auto;shape-rendering:auto;text-rendering:auto;enable-background:accumulate"
     d="M 106.59377,10.426061 C 86.235896,28.77861 61.049057,37.280181 34.275708,38.620454 32.713115,78.01792 37.951177,112.98351 49.758979,139.56738 c 12.116406,27.27867 30.832818,45.692 56.348421,52.12099 l 0.48637,0.11535 0.48446,-0.11535 h 0.002 c 25.5157,-6.42899 44.232,-24.84232 56.34842,-52.12099 4.93082,-11.10117 8.69385,-23.68599 11.31543,-37.42398 l 7.22518,0.97727 c -0.90698,-0.91426 -3.71779,-3.621561 -4.48884,-4.590205 0.34629,-1.949037 0.9402,-0.634384 1.24075,-2.627971 8.62977,-6.176856 9.92615,-13.58405 5.91626,-15.558422 -1.81252,-6.384646 -3.78915,-7.053896 -6.38533,-4.284362 0.98791,-12.027557 1.1819,-24.274646 0.65977,-37.439256 C 152.1385,37.280181 126.95168,28.77861 106.5938,10.426061 Z"
     id="path1021"
     inkscape:connector-curvature="0"
     sodipodi:nodetypes="ccsccccscccccccc" />
  <path
     style="color:#000000;font-style:normal;font-variant:normal;font-weight:normal;font-stretch:normal;font-size:medium;line-height:normal;font-family:sans-serif;font-variant-ligatures:normal;font-variant-position:normal;font-variant-caps:normal;font-variant-numeric:normal;font-variant-alternates:normal;font-feature-settings:normal;text-indent:0;text-align:start;text-decoration:none;text-decoration-line:none;text-decoration-style:solid;text-decoration-color:#000000;letter-spacing:normal;word-spacing:normal;text-transform:none;writing-mode:lr-tb;direction:ltr;text-orientation:mixed;dominant-baseline:auto;baseline-shift:baseline;text-anchor:start;white-space:normal;shape-padding:0;clip-rule:nonzero;display:inline;overflow:visible;visibility:visible;opacity:1;isolation:auto;mix-blend-mode:normal;color-interpolation:sRGB;color-interpolation-filters:linearRGB;solid-color:#000000;solid-opacity:1;vector-effect:none;fill:#111111;fill-opacity:1;fill-rule:nonzero;stroke:none;stroke-width:2.29999995;stroke-linecap:butt;stroke-linejoin:miter;stroke-miterlimit:4;stroke-dasharray:none;stroke-dashoffset:0;stroke-opacity:1;color-rendering:auto;image-rendering:auto;shape-rendering:auto;text-rendering:auto;enable-background:accumulate"
     d="m 106.59377,12.744515 -0.73821,0.63248 C 86.208139,30.264352 62.358029,38.47336 37.103609,40.208383 c -9.84e-4,8.8e-5 -0.003,-8.7e-5 -0.0039,0 l -0.05768,0.0038 c -0.07422,0.0051 -0.146708,0.0086 -0.215313,0.01346 -0.03337,0.0024 -0.04105,0.0034 -0.07303,0.0058 l -0.674777,0.04613 v 0.01154 c -0.019,0.0018 -0.0435,0.0038 -0.06732,0.0058 l 0.01919,2.326143 c -1.057113,37.564829 4.138516,70.870194 15.392914,96.208134 11.494071,25.87757 28.88849,43.29804 52.351677,50.18895 l 2.80867,0.82087 1.35724,-0.34027 c 24.22727,-6.57472 42.08423,-24.24256 53.82234,-50.66955 4.50317,-10.13835 8.02781,-21.56076 10.57722,-34.0136 -0.90689,0.0591 -1.7107,0.16918 -2.37804,0.34797 -2.50913,12.00425 -5.9377,22.99817 -10.26772,32.74671 -11.67333,26.28118 -29.19042,43.44024 -53.10142,49.65066 C 82.682793,181.35024 65.165683,164.19142 53.492344,137.91025 42.398936,112.93476 37.205876,79.8122 38.295519,42.359585 63.251189,40.46744 86.946344,32.26933 106.59377,15.674302 c 19.64743,16.595024 43.34237,24.79309 68.29826,26.685283 0.29951,10.295067 0.10562,20.247812 -0.53636,29.809236 h 2.26847 c 0.62983,-9.489821 0.81917,-19.353097 0.53251,-29.543941 l 0.0192,-2.326142 c -0.0225,-0.002 -0.0449,-0.0037 -0.0673,-0.0058 v -0.01538 l -0.91315,-0.06152 c -0.0157,-0.0011 -0.0303,-0.0028 -0.0462,-0.0038 h -0.004 l -0.0577,-0.0038 C 150.83188,38.473787 126.98041,30.265207 107.33199,13.376995 Z m 70.56288,29.880365 1.7821,0.08651 c -0.004,-0.0063 -0.008,-0.0089 -0.0115,-0.01538 z M 36.04627,41.329161 c -2.27e-4,0.0072 2.26e-4,0.014 0,0.02114 l -0.01152,-0.01154 z"
     id="path1030"
     inkscape:connector-curvature="0"
     sodipodi:nodetypes="cccccccccccsccccccscsccccccccccccccccccccccc" />
  <path
     style="opacity:1;vector-effect:none;fill:#000842;fill-opacity:1;stroke:#ffcb15;stroke-width:0;stroke-linecap:butt;stroke-linejoin:miter;stroke-miterlimit:4;stroke-dasharray:none;stroke-dashoffset:0;stroke-opacity:1"
     d="m 84.069986,14.784611 c 1.434832,3.324271 1.9342,7.044164 4.304497,11.478662 4.706242,8.804717 13.998607,18.113672 27.035267,20.404833 12.59097,2.21283 20.38643,16.366384 28.63625,30.962183 -3.17465,-1.201914 -6.25842,-1.760034 -8.89596,-1.7218 -3.61751,0.05244 -4.45712,0.559436 -4.01754,3.437558 0.28603,1.872789 1.43649,4.615019 -3.44359,4.292415 -6.87848,-0.45471 -11.22589,-2.962078 -21.0709,-7.882518 -9.10557,-4.550876 -18.276747,-4.738496 -27.139489,-6.734652 -3.794479,-0.85463 -6.555695,-2.697328 -8.895961,-5.452365 8.930569,1.985477 11.29556,0.323411 13.487426,-1.434833 -10.348018,0.01076 -15.186647,-3.421841 -19.513723,-7.174164 3.394042,0.435634 6.258185,2.460973 10.330793,0.860899 -8.632015,-2.43998 -13.037243,-8.502926 -16.3571,-15.496194 12.590851,8.321208 14.509902,6.859935 18.365869,7.174164 C 68.763532,43.58636 60.845999,38.385319 54.22546,25.402374 62.547494,32.186375 70.869518,39.361623 79.191553,39.463736 68.909275,32.261847 59.963597,24.296187 60.251757,11.054045 65.456382,21.523854 73.711829,27.925893 83.496049,32.289571 80.181134,18.273376 83.193145,19.020037 84.069986,14.784611 Z"
     id="path817"
     inkscape:connector-curvature="0"
     sodipodi:nodetypes="csscsssssccccccccccc" />
  <path
     sodipodi:type="star"
     style="opacity:1;vector-effect:none;fill:#ffffff;fill-opacity:1;stroke:none;stroke-width:0;stroke-linecap:butt;stroke-linejoin:miter;stroke-miterlimit:4;stroke-dasharray:none;stroke-dashoffset:0;stroke-opacity:1"
     id="path821"
     sodipodi:sides="5"
     sodipodi:cx="87.222"
     sodipodi:cy="51.758633"
     sodipodi:r1="12.027767"
     sodipodi:r2="6.0138831"
     sodipodi:arg1="0.85545875"
     sodipodi:arg2="1.4837773"
     inkscape:flatsided="false"
     inkscape:rounded="0"
     inkscape:randomized="0"
     d="m 95.110679,60.838056 -7.366017,-3.088295 -6.719971,4.317147 0.660919,-7.959834 -6.182436,-5.057 7.774487,-1.831153 2.899015,-7.442545 4.143978,6.828119 7.974127,0.457254 -5.213368,6.051163 z"
     inkscape:transform-center-x="-0.060055719"
     inkscape:transform-center-y="-0.42227438"
     transform="matrix(0.41631807,0.05268699,-0.05253881,0.4151471,53.899169,19.508287)" />
  <path
     transform="matrix(0.35012575,0.04431005,-0.04418543,0.34914096,74.809298,36.920052)"
     inkscape:transform-center-y="-0.35513483"
     inkscape:transform-center-x="-0.050506462"
     d="m 95.110679,60.838056 -7.366017,-3.088295 -6.719971,4.317147 0.660919,-7.959834 -6.182436,-5.057 7.774487,-1.831153 2.899015,-7.442545 4.143978,6.828119 7.974127,0.457254 -5.213368,6.051163 z"
     inkscape:randomized="0"
     inkscape:rounded="0"
     inkscape:flatsided="false"
     sodipodi:arg2="1.4837773"
     sodipodi:arg1="0.85545875"
     sodipodi:r2="6.0138831"
     sodipodi:r1="12.027767"
     sodipodi:cy="51.758633"
     sodipodi:cx="87.222"
     sodipodi:sides="5"
     id="path823"
     style="opacity:1;vector-effect:none;fill:#ffffff;fill-opacity:1;stroke:none;stroke-width:0;stroke-linecap:butt;stroke-linejoin:miter;stroke-miterlimit:4;stroke-dasharray:none;stroke-dashoffset:0;stroke-opacity:1"
     sodipodi:type="star" />
  <path
     sodipodi:type="star"
     style="opacity:1;vector-effect:none;fill:#ffffff;fill-opacity:1;stroke:none;stroke-width:0;stroke-linecap:butt;stroke-linejoin:miter;stroke-miterlimit:4;stroke-dasharray:none;stroke-dashoffset:0;stroke-opacity:1"
     id="path825"
     sodipodi:sides="5"
     sodipodi:cx="87.222"
     sodipodi:cy="51.758633"
     sodipodi:r1="12.027767"
     sodipodi:r2="6.0138831"
     sodipodi:arg1="0.85545875"
     sodipodi:arg2="1.4837773"
     inkscape:flatsided="false"
     inkscape:rounded="0"
     inkscape:randomized="0"
     d="m 95.110679,60.838056 -7.366017,-3.088295 -6.719971,4.317147 0.660919,-7.959834 -6.182436,-5.057 7.774487,-1.831153 2.899015,-7.442545 4.143978,6.828119 7.974127,0.457254 -5.213368,6.051163 z"
     inkscape:transform-center-x="-0.043823694"
     inkscape:transform-center-y="-0.30813578"
     transform="matrix(0.30379113,0.03844619,-0.03833805,0.30293667,73.03976,46.58842)" />
  <path
     transform="matrix(0.30379113,0.03844619,-0.03833805,0.30293667,80.071957,49.371995)"
     inkscape:transform-center-y="-0.30813655"
     inkscape:transform-center-x="-0.04382337"
     d="m 95.110679,60.838056 -7.366017,-3.088295 -6.719971,4.317147 0.660919,-7.959834 -6.182436,-5.057 7.774487,-1.831153 2.899015,-7.442545 4.143978,6.828119 7.974127,0.457254 -5.213368,6.051163 z"
     inkscape:randomized="0"
     inkscape:rounded="0"
     inkscape:flatsided="false"
     sodipodi:arg2="1.4837773"
     sodipodi:arg1="0.85545875"
     sodipodi:r2="6.0138831"
     sodipodi:r1="12.027767"
     sodipodi:cy="51.758633"
     sodipodi:cx="87.222"
     sodipodi:sides="5"
     id="path827"
     style="opacity:1;vector-effect:none;fill:#ffffff;fill-opacity:1;stroke:none;stroke-width:0;stroke-linecap:butt;stroke-linejoin:miter;stroke-miterlimit:4;stroke-dasharray:none;stroke-dashoffset:0;stroke-opacity:1"
     sodipodi:type="star" />
  <path
     sodipodi:type="star"
     style="opacity:1;vector-effect:none;fill:#ffffff;fill-opacity:1;stroke:none;stroke-width:0;stroke-linecap:butt;stroke-linejoin:miter;stroke-miterlimit:4;stroke-dasharray:none;stroke-dashoffset:0;stroke-opacity:1"
     id="path829"
     sodipodi:sides="5"
     sodipodi:cx="87.222"
     sodipodi:cy="51.758633"
     sodipodi:r1="12.027767"
     sodipodi:r2="6.0138831"
     sodipodi:arg1="0.85545875"
     sodipodi:arg2="1.4837773"
     inkscape:flatsided="false"
     inkscape:rounded="0"
     inkscape:randomized="0"
     d="m 95.110679,60.838056 -7.366017,-3.088295 -6.719971,4.317147 0.660919,-7.959834 -6.182436,-5.057 7.774487,-1.831153 2.899015,-7.442545 4.143978,6.828119 7.974127,0.457254 -5.213368,6.051163 z"
     inkscape:transform-center-x="-0.043823737"
     inkscape:transform-center-y="-0.30813571"
     transform="matrix(0.30379113,0.03844619,-0.03833805,0.30293667,97.359424,47.467444)" />
  <path
     transform="matrix(0.25083727,0.03174463,-0.03165535,0.25013176,98.88042,40.476086)"
     inkscape:transform-center-y="-0.25442534"
     inkscape:transform-center-x="-0.036183274"
     d="m 95.110679,60.838056 -7.366017,-3.088295 -6.719971,4.317147 0.660919,-7.959834 -6.182436,-5.057 7.774487,-1.831153 2.899015,-7.442545 4.143978,6.828119 7.974127,0.457254 -5.213368,6.051163 z"
     inkscape:randomized="0"
     inkscape:rounded="0"
     inkscape:flatsided="false"
     sodipodi:arg2="1.4837773"
     sodipodi:arg1="0.85545875"
     sodipodi:r2="6.0138831"
     sodipodi:r1="12.027767"
     sodipodi:cy="51.758633"
     sodipodi:cx="87.222"
     sodipodi:sides="5"
     id="path831"
     style="opacity:1;vector-effect:none;fill:#ffffff;fill-opacity:1;stroke:none;stroke-width:0;stroke-linecap:butt;stroke-linejoin:miter;stroke-miterlimit:4;stroke-dasharray:none;stroke-dashoffset:0;stroke-opacity:1"
     sodipodi:type="star" />
  <path
     sodipodi:type="star"
     style="opacity:1;vector-effect:none;fill:#ffffff;fill-opacity:1;stroke:none;stroke-width:0;stroke-linecap:butt;stroke-linejoin:miter;stroke-miterlimit:4;stroke-dasharray:none;stroke-dashoffset:0;stroke-opacity:1"
     id="path833"
     sodipodi:sides="5"
     sodipodi:cx="87.222"
     sodipodi:cy="51.758633"
     sodipodi:r1="12.027767"
     sodipodi:r2="6.0138831"
     sodipodi:arg1="0.85545875"
     sodipodi:arg2="1.4837773"
     inkscape:flatsided="false"
     inkscape:rounded="0"
     inkscape:randomized="0"
     d="m 95.110679,60.838056 -7.366017,-3.088295 -6.719971,4.317147 0.660919,-7.959834 -6.182436,-5.057 7.774487,-1.831153 2.899015,-7.442545 4.143978,6.828119 7.974127,0.457254 -5.213368,6.051163 z"
     inkscape:transform-center-x="-0.036183777"
     inkscape:transform-center-y="-0.25442478"
     transform="matrix(0.25083727,0.03174463,-0.03165535,0.25013176,105.91261,59.375101)" />
  <path
     transform="matrix(0.19997342,0.02530757,-0.02523639,0.19941097,111.75455,49.978442)"
     inkscape:transform-center-y="-0.20283427"
     inkscape:transform-center-x="-0.028843657"
     d="m 95.110679,60.838056 -7.366017,-3.088295 -6.719971,4.317147 0.660919,-7.959834 -6.182436,-5.057 7.774487,-1.831153 2.899015,-7.442545 4.143978,6.828119 7.974127,0.457254 -5.213368,6.051163 z"
     inkscape:randomized="0"
     inkscape:rounded="0"
     inkscape:flatsided="false"
     sodipodi:arg2="1.4837773"
     sodipodi:arg1="0.85545875"
     sodipodi:r2="6.0138831"
     sodipodi:r1="12.027767"
     sodipodi:cy="51.758633"
     sodipodi:cx="87.222"
     sodipodi:sides="5"
     id="path835"
     style="opacity:1;vector-effect:none;fill:#ffffff;fill-opacity:1;stroke:none;stroke-width:0;stroke-linecap:butt;stroke-linejoin:miter;stroke-miterlimit:4;stroke-dasharray:none;stroke-dashoffset:0;stroke-opacity:1"
     sodipodi:type="star" />
  <path
     sodipodi:type="star"
     style="opacity:1;vector-effect:none;fill:#ffffff;fill-opacity:1;stroke:none;stroke-width:0;stroke-linecap:butt;stroke-linejoin:miter;stroke-miterlimit:4;stroke-dasharray:none;stroke-dashoffset:0;stroke-opacity:1"
     id="path837"
     sodipodi:sides="5"
     sodipodi:cx="87.222"
     sodipodi:cy="51.758633"
     sodipodi:r1="12.027767"
     sodipodi:r2="6.0138831"
     sodipodi:arg1="0.85545875"
     sodipodi:arg2="1.4837773"
     inkscape:flatsided="false"
     inkscape:rounded="0"
     inkscape:randomized="0"
     d="m 95.110679,60.838056 -7.366017,-3.088295 -6.719971,4.317147 0.660919,-7.959834 -6.182436,-5.057 7.774487,-1.831153 2.899015,-7.442545 4.143978,6.828119 7.974127,0.457254 -5.213368,6.051163 z"
     inkscape:transform-center-x="-0.028839002"
     inkscape:transform-center-y="-0.20283372"
     transform="matrix(0.19997342,0.02530757,-0.02523639,0.19941097,116.88218,56.717626)" />
  <path
     style="fill:#000842;fill-opacity:1;stroke:#ffcb15;stroke-width:0;stroke-linecap:butt;stroke-linejoin:miter;stroke-miterlimit:4;stroke-dasharray:none;stroke-opacity:1"
     d="M 125.34787,93.869575 C 115.14412,83.762474 106.79922,77.212899 86.670813,73.652026 67.991911,70.347582 46.530011,62.41828 42.719616,37.905054 38.76464,46.619186 39.973126,54.185885 43.012618,61.345691 29.936318,51.41241 17.64034,39.450308 8.4376846,19.445552 9.258864,39.690647 18.457966,55.946253 35.687419,68.377882 23.904903,66.451689 12.645673,57.722846 1.4054872,48.746349 8.1451648,60.401391 17.805523,71.082872 37.738473,78.340154 c -5.933627,1.790313 -15.7865,-1.645033 -26.663721,-6.446176 6.300215,11.698059 16.944375,12.846563 26.956733,15.529423 -4.639646,0.469262 -7.582433,2.374331 -19.045519,-2.93008 4.205064,5.849491 10.071464,8.111796 20.362512,9.546918 -2.881692,4.351596 -8.333767,3.990836 -14.513661,2.295744 3.357348,5.363367 12.828348,5.377267 20.228855,7.202867 -1.28088,1.55359 -3.383008,2.92469 -9.595237,3.38244 13.229366,4.88186 17.036179,2.69681 24.245636,3.06373 -3.297061,3.97786 -7.970704,3.82597 -12.306333,4.68813 6.978839,2.97529 14.15112,4.01615 21.682596,1.46504 0.753018,3.12701 -1.922673,4.96824 -5.567157,6.44618 2.764217,1.49603 6.176942,2.69729 14.94341,1.46504 -2.524997,2.16313 -4.988309,4.38795 -9.669265,4.39512 2.829722,2.65648 7.922306,2.67296 14.064385,1.46503 l -2.051054,5.56715 c 7.269233,-4.27739 14.635575,-7.46537 26.663717,-16.99445 6.22436,-4.93113 7.59092,-9.36261 10.25528,-13.47837 -4.73694,0.70809 -4.26544,-1.62756 -6.15316,-2.34407 3.40681,-6.481032 8.93135,-6.608872 13.77138,-8.790245 z"
     id="path839"
     inkscape:connector-curvature="0"
     sodipodi:nodetypes="cscccccccccccccccccccccsccc" />
  <path
     transform="matrix(0.37878586,0.04793712,-0.04780229,0.37772047,28.256724,54.219091)"
     inkscape:transform-center-y="-0.38420469"
     inkscape:transform-center-x="-0.054641358"
     d="m 95.110679,60.838056 -7.366017,-3.088295 -6.719971,4.317147 0.660919,-7.959834 -6.182436,-5.057 7.774487,-1.831153 2.899015,-7.442545 4.143978,6.828119 7.974127,0.457254 -5.213368,6.051163 z"
     inkscape:randomized="0"
     inkscape:rounded="0"
     inkscape:flatsided="false"
     sodipodi:arg2="1.4837773"
     sodipodi:arg1="0.85545875"
     sodipodi:r2="6.0138831"
     sodipodi:r1="12.027767"
     sodipodi:cy="51.758633"
     sodipodi:cx="87.222"
     sodipodi:sides="5"
     id="path841"
     style="opacity:1;vector-effect:none;fill:#ffffff;fill-opacity:1;stroke:none;stroke-width:0;stroke-linecap:butt;stroke-linejoin:miter;stroke-miterlimit:4;stroke-dasharray:none;stroke-dashoffset:0;stroke-opacity:1"
     sodipodi:type="star" />
  <path
     sodipodi:type="star"
     style="opacity:1;vector-effect:none;fill:#ffffff;fill-opacity:1;stroke:none;stroke-width:0;stroke-linecap:butt;stroke-linejoin:miter;stroke-miterlimit:4;stroke-dasharray:none;stroke-dashoffset:0;stroke-opacity:1"
     id="path843"
     sodipodi:sides="5"
     sodipodi:cx="87.222"
     sodipodi:cy="51.758633"
     sodipodi:r1="12.027767"
     sodipodi:r2="6.0138831"
     sodipodi:arg1="0.85545875"
     sodipodi:arg2="1.4837773"
     inkscape:flatsided="false"
     inkscape:rounded="0"
     inkscape:randomized="0"
     d="m 95.110679,60.838056 -7.366017,-3.088295 -6.719971,4.317147 0.660919,-7.959834 -6.182436,-5.057 7.774487,-1.831153 2.899015,-7.442545 4.143978,6.828119 7.974127,0.457254 -5.213368,6.051163 z"
     inkscape:transform-center-x="-0.054641582"
     inkscape:transform-center-y="-0.38420482"
     transform="matrix(0.37878586,0.04793712,-0.04780229,0.37772047,39.471219,75.194349)" />
  <path
     transform="matrix(0.37878586,0.04793712,-0.04780229,0.37772047,69.999568,74.778998)"
     inkscape:transform-center-y="-0.38420413"
     inkscape:transform-center-x="-0.054641502"
     d="m 95.110679,60.838056 -7.366017,-3.088295 -6.719971,4.317147 0.660919,-7.959834 -6.182436,-5.057 7.774487,-1.831153 2.899015,-7.442545 4.143978,6.828119 7.974127,0.457254 -5.213368,6.051163 z"
     inkscape:randomized="0"
     inkscape:rounded="0"
     inkscape:flatsided="false"
     sodipodi:arg2="1.4837773"
     sodipodi:arg1="0.85545875"
     sodipodi:r2="6.0138831"
     sodipodi:r1="12.027767"
     sodipodi:cy="51.758633"
     sodipodi:cx="87.222"
     sodipodi:sides="5"
     id="path845"
     style="opacity:1;vector-effect:none;fill:#ffffff;fill-opacity:1;stroke:none;stroke-width:0;stroke-linecap:butt;stroke-linejoin:miter;stroke-miterlimit:4;stroke-dasharray:none;stroke-dashoffset:0;stroke-opacity:1"
     sodipodi:type="star" />
  <path
     sodipodi:type="star"
     style="opacity:1;vector-effect:none;fill:#ffffff;fill-opacity:1;stroke:none;stroke-width:0;stroke-linecap:butt;stroke-linejoin:miter;stroke-miterlimit:4;stroke-dasharray:none;stroke-dashoffset:0;stroke-opacity:1"
     id="path847"
     sodipodi:sides="5"
     sodipodi:cx="87.222"
     sodipodi:cy="51.758633"
     sodipodi:r1="12.027767"
     sodipodi:r2="6.0138831"
     sodipodi:arg1="0.85545875"
     sodipodi:arg2="1.4837773"
     inkscape:flatsided="false"
     inkscape:rounded="0"
     inkscape:randomized="0"
     d="m 95.110679,60.838056 -7.366017,-3.088295 -6.719971,4.317147 0.660919,-7.959834 -6.182436,-5.057 7.774487,-1.831153 2.899015,-7.442545 4.143978,6.828119 7.974127,0.457254 -5.213368,6.051163 z"
     inkscape:transform-center-x="-0.053287026"
     inkscape:transform-center-y="-0.37468714"
     transform="matrix(0.3694028,0.04674965,-0.04661817,0.36836381,60.69003,71.099987)" />
  <path
     transform="matrix(0.3694028,0.04674965,-0.04661817,0.36836381,77.92712,67.98485)"
     inkscape:transform-center-y="-0.37468692"
     inkscape:transform-center-x="-0.053286119"
     d="m 95.110679,60.838056 -7.366017,-3.088295 -6.719971,4.317147 0.660919,-7.959834 -6.182436,-5.057 7.774487,-1.831153 2.899015,-7.442545 4.143978,6.828119 7.974127,0.457254 -5.213368,6.051163 z"
     inkscape:randomized="0"
     inkscape:rounded="0"
     inkscape:flatsided="false"
     sodipodi:arg2="1.4837773"
     sodipodi:arg1="0.85545875"
     sodipodi:r2="6.0138831"
     sodipodi:r1="12.027767"
     sodipodi:cy="51.758633"
     sodipodi:cx="87.222"
     sodipodi:sides="5"
     id="path849"
     style="opacity:1;vector-effect:none;fill:#ffffff;fill-opacity:1;stroke:none;stroke-width:0;stroke-linecap:butt;stroke-linejoin:miter;stroke-miterlimit:4;stroke-dasharray:none;stroke-dashoffset:0;stroke-opacity:1"
     sodipodi:type="star" />
  <path
     sodipodi:type="star"
     style="opacity:1;vector-effect:none;fill:#ffffff;fill-opacity:1;stroke:none;stroke-width:0;stroke-linecap:butt;stroke-linejoin:miter;stroke-miterlimit:4;stroke-dasharray:none;stroke-dashoffset:0;stroke-opacity:1"
     id="path851"
     sodipodi:sides="5"
     sodipodi:cx="87.222"
     sodipodi:cy="51.758633"
     sodipodi:r1="12.027767"
     sodipodi:r2="6.0138831"
     sodipodi:arg1="0.85545875"
     sodipodi:arg2="1.4837773"
     inkscape:flatsided="false"
     inkscape:rounded="0"
     inkscape:randomized="0"
     d="m 95.110679,60.838056 -7.366017,-3.088295 -6.719971,4.317147 0.660919,-7.959834 -6.182436,-5.057 7.774487,-1.831153 2.899015,-7.442545 4.143978,6.828119 7.974127,0.457254 -5.213368,6.051163 z"
     inkscape:transform-center-x="-0.051987513"
     inkscape:transform-center-y="-0.36554596"
     transform="matrix(0.36039009,0.04560905,-0.04548078,0.35937644,68.375704,62.210353)" />
  <path
     transform="matrix(0.29730106,0.03762484,-0.03751902,0.29646486,61.118755,65.4008)"
     inkscape:transform-center-y="-0.30155476"
     inkscape:transform-center-x="-0.04288677"
     d="m 95.110679,60.838056 -7.366017,-3.088295 -6.719971,4.317147 0.660919,-7.959834 -6.182436,-5.057 7.774487,-1.831153 2.899015,-7.442545 4.143978,6.828119 7.974127,0.457254 -5.213368,6.051163 z"
     inkscape:randomized="0"
     inkscape:rounded="0"
     inkscape:flatsided="false"
     sodipodi:arg2="1.4837773"
     sodipodi:arg1="0.85545875"
     sodipodi:r2="6.0138831"
     sodipodi:r1="12.027767"
     sodipodi:cy="51.758633"
     sodipodi:cx="87.222"
     sodipodi:sides="5"
     id="path853"
     style="opacity:1;vector-effect:none;fill:#ffffff;fill-opacity:1;stroke:none;stroke-width:0;stroke-linecap:butt;stroke-linejoin:miter;stroke-miterlimit:4;stroke-dasharray:none;stroke-dashoffset:0;stroke-opacity:1"
     sodipodi:type="star" />
  <path
     sodipodi:type="star"
     style="opacity:1;vector-effect:none;fill:#ffffff;fill-opacity:1;stroke:none;stroke-width:0;stroke-linecap:butt;stroke-linejoin:miter;stroke-miterlimit:4;stroke-dasharray:none;stroke-dashoffset:0;stroke-opacity:1"
     id="path855"
     sodipodi:sides="5"
     sodipodi:cx="87.222"
     sodipodi:cy="51.758633"
     sodipodi:r1="12.027767"
     sodipodi:r2="6.0138831"
     sodipodi:arg1="0.85545875"
     sodipodi:arg2="1.4837773"
     inkscape:flatsided="false"
     inkscape:rounded="0"
     inkscape:randomized="0"
     d="m 95.110679,60.838056 -7.366017,-3.088295 -6.719971,4.317147 0.660919,-7.959834 -6.182436,-5.057 7.774487,-1.831153 2.899015,-7.442545 4.143978,6.828119 7.974127,0.457254 -5.213368,6.051163 z"
     inkscape:transform-center-x="-0.042886797"
     inkscape:transform-center-y="-0.30155489"
     transform="matrix(0.29730106,0.03762484,-0.03751902,0.29646486,53.021118,85.974067)" />
  <path
     sodipodi:type="star"
     style="opacity:1;vector-effect:none;fill:#ffffff;fill-opacity:1;stroke:none;stroke-width:0;stroke-linecap:butt;stroke-linejoin:miter;stroke-miterlimit:4;stroke-dasharray:none;stroke-dashoffset:0;stroke-opacity:1"
     id="path857"
     sodipodi:sides="5"
     sodipodi:cx="87.222"
     sodipodi:cy="51.758633"
     sodipodi:r1="12.027767"
     sodipodi:r2="6.0138831"
     sodipodi:arg1="0.85545875"
     sodipodi:arg2="1.4837773"
     inkscape:flatsided="false"
     inkscape:rounded="0"
     inkscape:randomized="0"
     d="m 95.110679,60.838056 -7.366017,-3.088295 -6.719971,4.317147 0.660919,-7.959834 -6.182436,-5.057 7.774487,-1.831153 2.899015,-7.442545 4.143978,6.828119 7.974127,0.457254 -5.213368,6.051163 z"
     inkscape:transform-center-x="-0.042886408"
     inkscape:transform-center-y="-0.3015541"
     transform="matrix(0.29730106,0.03762484,-0.03751902,0.29646486,42.236539,88.733752)" />
  <path
     style="fill:#000000;fill-opacity:1;stroke:none;stroke-width:0;stroke-linecap:butt;stroke-linejoin:miter;stroke-miterlimit:4;stroke-dasharray:none;stroke-opacity:1"
     d="m 149.78891,70.165647 c -1.64264,-0.06688 -2.89625,0.605312 -3.43924,2.42611 3.06534,-0.180236 4.85395,1.513256 8.14919,4.815693 -1.18946,-1.92806 -2.53688,-3.935587 -4.90989,-5.20787 2.11574,0.4671 4.45422,2.071878 6.78427,4.014039 h 21.71963 c 4.70322,-0.06067 5.31644,3.323707 7.09379,5.726926 0.41948,-4.168185 2.02223,-8.792647 -5.84996,-9.771724 h -23.77281 c -2.10107,-1.131374 -4.13234,-1.936287 -5.77498,-2.003174 z"
     id="path875"
     inkscape:connector-curvature="0" />
  <path
     style="opacity:1;vector-effect:none;fill:#f2ca16;fill-opacity:1;stroke:none;stroke-width:0;stroke-linecap:butt;stroke-linejoin:miter;stroke-miterlimit:4;stroke-dasharray:none;stroke-dashoffset:0;stroke-opacity:1"
     d="m 180.67508,84.897952 a 2.65178,2.0491026 73.70557 0 1 -1.22279,3.120182 2.65178,2.0491026 73.70557 0 1 -2.71081,-1.970333 2.65178,2.0491026 73.70557 0 1 1.22278,-3.120193 2.65178,2.0491026 73.70557 0 1 2.71082,1.970344 z"
     id="path886"
     inkscape:connector-curvature="0" />
  <path
     style="opacity:1;vector-effect:none;fill:#000000;fill-opacity:1;stroke:none;stroke-width:0;stroke-linecap:butt;stroke-linejoin:miter;stroke-miterlimit:4;stroke-dasharray:none;stroke-dashoffset:0;stroke-opacity:1"
     d="m 181.23948,85.191656 a 0.92410517,1.9687458 0 0 1 -0.92411,1.968746 0.92410517,1.9687458 0 0 1 -0.9241,-1.968746 0.92410517,1.9687458 0 0 1 0.9241,-1.968745 0.92410517,1.9687458 0 0 1 0.92411,1.968745 z"
     id="path884"
     inkscape:connector-curvature="0" />
  <path
     style="fill:#000000;fill-opacity:1;stroke:none;stroke-width:0.99999994px;stroke-linecap:butt;stroke-linejoin:miter;stroke-opacity:1"
     d="m 183.81091,84.187195 c -3.87702,-1.035086 -4.78231,-3.732928 -10.04462,-2.08928 2.14485,1.444266 2.57337,3.362087 3.10177,4.655628 -0.27291,-0.798776 -0.37261,-2.473549 0.33839,-2.903846 1.3828,-0.836874 3.80705,0.166193 6.60446,0.337498 z"
     id="path882"
     inkscape:connector-curvature="0"
     sodipodi:nodetypes="cccsc" />
  <path
     style="fill:#f2ca16;fill-opacity:1;stroke:none;stroke-width:0.99999994px;stroke-linecap:butt;stroke-linejoin:miter;stroke-opacity:1"
     d="m 187.83384,83.243955 c -0.54917,4.079384 -6.3467,9.813956 -13.23787,11.61149 0.94373,2.771437 2.93672,5.123814 5.17327,7.378305 0.78909,0.79541 1.60165,1.58144 2.4165,2.36651 0.0239,0.023 0.0472,0.0462 0.0712,0.0692 0.45303,0.43635 0.90981,0.87098 1.3534,1.31109 -0.12088,-1.11983 -0.21258,-2.07521 -0.27299,-2.96439 -0.98487,-1.0668 -1.97253,-2.26514 -3.03551,-4.227435 -1.10598,-2.128986 -1.1179,-4.030097 3.28543,-4.513873 3.832,-1.657251 6.72429,-1.052525 10.29078,1.095786 1.47911,1.236492 1.76297,2.942627 1.60523,4.792632 0.0879,0.50069 0.13911,1.03169 0.1461,1.5937 2.61098,-3.305665 7.79802,-13.030597 -7.79546,-18.513035 z"
     id="path896"
     inkscape:connector-curvature="0" />
  <path
     style="fill:#000000;fill-opacity:1;stroke:none;stroke-width:0.99999994px;stroke-linecap:butt;stroke-linejoin:miter;stroke-opacity:1"
     d="m 187.83384,83.243955 c -0.13308,0.988576 -0.57841,2.074383 -1.2688,3.17778 7.83888,-0.440932 11.43431,4.019598 11.74798,9.904371 0.98673,-4.212708 -0.38353,-9.532667 -10.47918,-13.082151 z"
     id="path891"
     inkscape:connector-curvature="0" />
  <path
     style="fill:#000000;fill-opacity:1;stroke:none;stroke-width:0.99999994px;stroke-linecap:butt;stroke-linejoin:miter;stroke-opacity:1"
     d="m 187.58585,93.327114 c -1.25768,0.02323 -2.56166,0.32629 -3.99866,0.947758 -4.40332,0.483777 -4.3914,2.384894 -3.28543,4.513873 1.06298,1.962295 2.05064,3.160635 3.03551,4.227435 -0.10399,-1.53078 -0.0841,-2.79806 0.26145,-3.887161 1.18067,-2.971524 2.5102,-2.131751 5.38089,-2.558764 4.0892,-1.023164 5.99749,0.708932 6.50359,3.593035 0.15774,-1.850005 -0.12612,-3.556144 -1.60523,-4.792632 -2.22906,-1.342694 -4.196,-2.082286 -6.29212,-2.043544 z"
     id="path901"
     inkscape:connector-curvature="0" />
  <path
     style="fill:#000000;fill-opacity:1;stroke:none;stroke-width:0.99999994px;stroke-linecap:butt;stroke-linejoin:miter;stroke-opacity:1"
     d="m 195.15799,92.564545 c -0.52757,-1.3548 -0.65782,-2.665453 -2.96849,-4.218375 -2.80431,-1.11297 -3.99186,-0.501378 -3.67155,1.718597 2.94971,0.0969 4.93087,1.162346 6.64004,2.499778 z"
     id="path909"
     inkscape:connector-curvature="0"
     sodipodi:nodetypes="cccc" />
  <path
     style="fill:#0e0e0e;fill-opacity:1;stroke:none;stroke-width:0.99999994px;stroke-linecap:butt;stroke-linejoin:miter;stroke-opacity:1"
     d="m 172.63702,102.02228 a 1.9543218,2.9314826 70.516699 0 1 -2.18196,2.25694 1.9543218,2.9314826 70.516699 0 1 -0.0135,0.004 l -0.0846,0.10766 c -0.0428,-0.0142 -0.094,-0.0233 -0.13842,-0.0365 a 1.9543218,2.9314826 70.516699 0 1 -2.69909,-0.29797 c -0.99808,-0.003 -2.1069,0.0622 -3.28159,0.16533 -0.57487,2.65086 -0.5166,4.03434 -0.42486,5.35205 -1.59661,1.66641 -3.19216,2.54136 -4.78878,6.54011 -1.55292,1.99978 -3.10704,3.985 -4.65998,3.77181 l 0.69785,1.75326 c 1.95512,-1.59475 4.15984,-3.27896 5.60581,-5.31168 2.3456,-3.2974 3.87339,-4.22788 5.02139,-5.34436 1.69837,-2.35443 3.23433,-3.95301 5.17712,-5.40203 1.95636,-1.22348 7.44491,-0.6822 11.3904,-0.91124 -0.83891,-0.80805 -1.67538,-1.61696 -2.48762,-2.43572 z"
     id="path911"
     inkscape:connector-curvature="0" />
  <path
     style="opacity:1;vector-effect:none;fill:#f2ca16;fill-opacity:1;stroke:none;stroke-width:0;stroke-linecap:butt;stroke-linejoin:miter;stroke-miterlimit:4;stroke-dasharray:none;stroke-dashoffset:0;stroke-opacity:1"
     d="m 172.56752,101.45848 a 1.9543218,2.9314826 70.516699 0 1 -2.11181,2.82016 1.9543218,2.9314826 70.516699 0 1 -3.41544,-0.86468 1.9543218,2.9314826 70.516699 0 1 2.11179,-2.82016 1.9543218,2.9314826 70.516699 0 1 3.41546,0.86468 z"
     id="path913"
     inkscape:connector-curvature="0" />
  <path
     style="fill:#ef2e21;fill-opacity:1;stroke:none;stroke-width:0.99999994px;stroke-linecap:butt;stroke-linejoin:miter;stroke-opacity:1"
     d="m 142.54326,74.983262 c 0.50049,0.883469 1.00067,1.757836 1.50334,2.647189 -3.17464,-1.201913 -6.25947,-1.760733 -8.89701,-1.722499 -3.61751,0.05244 -4.45747,0.559187 -4.01789,3.437309 0.14997,0.981943 0.53201,2.200306 0.1634,3.093194 h 28.63849 c -2.39532,-5.488097 -9.2171,-6.830041 -17.39033,-7.455193 z"
     id="path941"
     inkscape:connector-curvature="0" />
  <path
     style="opacity:1;vector-effect:none;fill:#ef2e21;fill-opacity:1;stroke:none;stroke-width:0.99999994px;stroke-linecap:butt;stroke-linejoin:miter;stroke-miterlimit:4;stroke-dasharray:none;stroke-dashoffset:0;stroke-opacity:1"
     d="m 117.98611,87.079207 c 2.33427,1.939005 4.59576,4.074042 6.93998,6.384398 h 29.30363 c 1.17259,-4.314762 7.39192,-2.724361 8.09921,-6.384398 z"
     id="path946"
     inkscape:connector-curvature="0" />
  <path
     style="opacity:1;vector-effect:none;fill:#ef2e21;fill-opacity:1;stroke:none;stroke-width:0.99999994px;stroke-linecap:butt;stroke-linejoin:miter;stroke-miterlimit:4;stroke-dasharray:none;stroke-dashoffset:0;stroke-opacity:1"
     d="m 114.4546,98.890639 c -1.06031,0.95321 -2.03459,2.165631 -2.87788,3.769891 1.88772,0.71651 1.41676,3.05154 6.1537,2.34345 -0.0579,0.0895 -0.10859,0.18133 -0.16533,0.27106 h 36.66463 c 1.17259,-4.31476 7.39192,-2.72437 8.09921,-6.384401 z"
     id="path967"
     inkscape:connector-curvature="0" />
  <path
     style="opacity:1;vector-effect:none;fill:#ef2e21;fill-opacity:1;stroke:none;stroke-width:0.99999994px;stroke-linecap:butt;stroke-linejoin:miter;stroke-miterlimit:4;stroke-dasharray:none;stroke-dashoffset:0;stroke-opacity:1"
     d="m 114.38732,110.70206 c -1.22311,1.98796 -2.72951,4.05271 -5.08676,6.21715 0.29509,-0.021 0.60894,-0.0517 0.95737,-0.10381 -0.0579,0.0895 -0.10859,0.18134 -0.16533,0.27106 h 39.79051 l 5.53467,-6.3844 z"
     id="path972"
     inkscape:connector-curvature="0" />
  <path
     style="opacity:1;vector-effect:none;fill:#ef2e21;fill-opacity:1;stroke:none;stroke-width:0.99999994px;stroke-linecap:butt;stroke-linejoin:miter;stroke-miterlimit:4;stroke-dasharray:none;stroke-dashoffset:0;stroke-opacity:1"
     d="m 101.56662,122.91527 c -3.491287,2.4956 -6.595329,4.48817 -9.404548,6.14795 -0.04912,0.0785 -0.09469,0.15819 -0.144178,0.23645 H 131.8084 c 3.17576,-1.40002 5.42826,-3.95445 7.78008,-6.3844 z"
     id="path977"
     inkscape:connector-curvature="0" />
  <path
     style="opacity:1;vector-effect:none;fill:#ef2e21;fill-opacity:1;stroke:none;stroke-width:0.99999994px;stroke-linecap:butt;stroke-linejoin:miter;stroke-miterlimit:4;stroke-dasharray:none;stroke-dashoffset:0;stroke-opacity:1"
     d="m 146.53222,122.67953 c -4.56695,3.84101 -8.17129,4.91477 -11.94714,6.97584 3.20288,-1.02734 5.7033,0.0841 9.8624,-3.04691 2.02597,-2.30793 1.60449,-2.78029 2.08474,-3.92893 z"
     id="path991"
     inkscape:connector-curvature="0"
     sodipodi:nodetypes="cccc" />
  <path
     sodipodi:nodetypes="cccc"
     inkscape:connector-curvature="0"
     id="path998"
     d="m 148.91461,124.37024 c -2.65061,3.69845 -3.05932,3.44614 -5.24587,5.27609 1.97731,-1.13527 2.26888,0.85044 4.58164,-1.81484 1.01556,-1.81716 0.50882,-2.63176 0.66423,-3.46125 z"
     style="opacity:1;vector-effect:none;fill:#ef2e21;fill-opacity:1;stroke:none;stroke-width:0.99999994px;stroke-linecap:butt;stroke-linejoin:miter;stroke-miterlimit:4;stroke-dasharray:none;stroke-dashoffset:0;stroke-opacity:1" />
  <path
     style="opacity:1;vector-effect:none;fill:#ef2e21;fill-opacity:1;stroke:none;stroke-width:0.99999994px;stroke-linecap:butt;stroke-linejoin:miter;stroke-miterlimit:4;stroke-dasharray:none;stroke-dashoffset:0;stroke-opacity:1"
     d="m 154.22969,128.69319 a 1.7640075,1.6036431 0 0 1 -1.764,1.60364 1.7640075,1.6036431 0 0 1 -1.76401,-1.60364 1.7640075,1.6036431 0 0 1 1.76401,-1.60364 1.7640075,1.6036431 0 0 1 1.764,1.60364 z"
     id="path1002"
     inkscape:connector-curvature="0" />
  <path
     style="opacity:1;vector-effect:none;fill:#ef2e21;fill-opacity:1;stroke:none;stroke-width:0.99999994px;stroke-linecap:butt;stroke-linejoin:miter;stroke-miterlimit:4;stroke-dasharray:none;stroke-dashoffset:0;stroke-opacity:1"
     d="m 101.79057,134.9474 h 45.54346 v 1.28291 l -25.43139,14.38723 -20.35262,-14.38723 z"
     id="path1005"
     inkscape:connector-curvature="0"
     sodipodi:nodetypes="cccccc" />
</svg>
